<svg width="32" height="32" viewBox="0 0 32 32" fill="none" xmlns="http://www.w3.org/2000/svg">
<path fill-rule="evenodd" clip-rule="evenodd" d="M13.9004 9.5C13.9004 11.4 12.3004 13 10.4004 13C8.50039 13 6.90039 11.4 6.90039 9.5C6.90039 7.6 8.50039 6 10.4004 6C12.3004 6 13.9004 7.6 13.9004 9.5ZM14.9004 9.5C14.9004 12 12.9004 14 10.4004 14C7.90039 14 5.90039 12 5.90039 9.5C5.90039 7 7.90039 5 10.4004 5C12.9004 5 14.9004 7 14.9004 9.5ZM9.90039 10H8.40039V9H9.90039V7.5H10.9004V9H12.4004V10H10.9004V11.5H9.90039V10Z" fill="#4C5356"/>
<path fill-rule="evenodd" clip-rule="evenodd" d="M9.5 18.5117C7.87 18.2317 6.32 19.3317 6.04 20.9717H5C4.45 20.9717 4 20.5217 4 19.9717V15.9317C4 15.7317 4.06 15.5417 4.17 15.3717L5.93 12.7317L5.37 11.7617L3.34 14.8217C3.12 15.1417 3 15.5317 3 15.9317V19.9817C3 21.0817 3.9 21.9717 5 21.9717H6.04C6.25 23.2317 7.24 24.2217 8.5 24.4317C10.13 24.7117 11.68 23.6117 11.96 21.9717C12.24 20.3417 11.14 18.7917 9.5 18.5117ZM9 23.4717C7.9 23.4717 7 22.5717 7 21.4717C7 20.3717 7.9 19.4717 9 19.4717C10.1 19.4717 11 20.3717 11 21.4717C11 22.5717 10.1 23.4717 9 23.4717Z" fill="#4C5356"/>
<path fill-rule="evenodd" clip-rule="evenodd" d="M27.17 14.7812L21.9 14.0312C21.79 14.0112 21.69 13.9713 21.62 13.8913L17.73 10.0012C17.2 9.47125 16.52 9.14125 15.79 9.03125L15.82 10.0512C16.27 10.1612 16.69 10.3812 17.02 10.7112L20.91 14.6013C21.14 14.8313 21.44 14.9813 21.76 15.0213L27.03 15.7713C27.55 15.8413 27.93 16.3212 27.88 16.8412L27.61 20.0613C27.57 20.5813 27.13 20.9812 26.61 20.9812H25.95C25.74 19.7212 24.75 18.7312 23.49 18.5212C21.86 18.2512 20.31 19.3512 20.03 20.9812H15.99V21.9812H20.03C20.24 23.2412 21.23 24.2312 22.49 24.4412C24.12 24.7113 25.67 23.6112 25.95 21.9812H26.61C27.65 21.9812 28.52 21.1812 28.6 20.1512L28.87 16.9313C28.96 15.8713 28.21 14.9312 27.16 14.7812H27.17ZM23 23.4712C21.9 23.4712 21 22.5712 21 21.4712C21 20.3712 21.9 19.4713 23 19.4713C24.1 19.4713 25 20.3712 25 21.4712C25 22.5712 24.1 23.4712 23 23.4712Z" fill="#4C5356"/>
</svg>
