<svg width="24" height="24" viewBox="0 0 24 24" fill="none" xmlns="http://www.w3.org/2000/svg">
<path fill-rule="evenodd" clip-rule="evenodd" d="M7.41016 11C8.81016 11 9.91016 9.9 9.91016 8.5C9.91016 7.1 8.81016 6 7.41016 6C6.01016 6 4.91016 7.1 4.91016 8.5C4.91016 9.9 6.01016 11 7.41016 11ZM7.41016 12C9.31016 12 10.9102 10.4 10.9102 8.5C10.9102 6.6 9.31016 5 7.41016 5C5.51016 5 3.91016 6.6 3.91016 8.5C3.91016 10.4 5.51016 12 7.41016 12ZM7.81016 9H8.81016V8H7.81016V7H6.81016V8H5.81016V9H6.81016V10H7.81016V9Z" fill="#4C5356"/>
<path fill-rule="evenodd" clip-rule="evenodd" d="M7.51 14.5304C6.16 14.2504 4.84 15.1304 4.56 16.4804H3.51C3.23 16.4804 3.01 16.2604 3.01 15.9804V13.2804C3.01 13.1804 3.04 13.0804 3.09 13.0004L4.09 11.5004L3.45 10.6504L2.25 12.4404C2.09 12.6904 2 12.9804 2 13.2704V15.9704C2 16.8004 2.67 17.4704 3.5 17.4704H4.55C4.75 18.4504 5.52 19.2204 6.5 19.4204C7.85 19.7004 9.17 18.8204 9.45 17.4704C9.73 16.1204 8.85 14.8004 7.5 14.5204L7.51 14.5304ZM7.01 18.4804C6.18 18.4804 5.51 17.8104 5.51 16.9804C5.51 16.1504 6.18 15.4804 7.01 15.4804C7.84 15.4804 8.51 16.1504 8.51 16.9804C8.51 17.8104 7.84 18.4804 7.01 18.4804Z" fill="#4C5356"/>
<path fill-rule="evenodd" clip-rule="evenodd" d="M20.6501 12.33L15.9601 11.55C15.8401 11.53 15.7401 11.47 15.6601 11.38L13.5001 8.85C13.0801 8.36 12.4801 8.06 11.8301 8V9C12.1801 9.06 12.5001 9.23 12.7401 9.5L14.9101 12.02C15.1401 12.29 15.4501 12.47 15.8001 12.52L20.5001 13.3C20.7601 13.34 20.9501 13.59 20.9101 13.86L20.6401 16.03C20.6101 16.28 20.4001 16.47 20.1401 16.47H19.4701C19.2501 15.39 18.3601 14.59 17.2701 14.48C15.9001 14.34 14.6701 15.35 14.5401 16.72H12.0301V17.72H14.6501C14.9201 18.59 15.6401 19.24 16.5401 19.42C17.8901 19.7 19.2101 18.82 19.4901 17.47H20.1601C20.9201 17.47 21.5601 16.91 21.6501 16.16L21.9201 13.99C22.0201 13.19 21.4701 12.46 20.6801 12.32L20.6501 12.33ZM17.0101 18.48C16.1801 18.48 15.5101 17.81 15.5101 16.98C15.5101 16.15 16.1801 15.48 17.0101 15.48C17.8401 15.48 18.5101 16.15 18.5101 16.98C18.5101 17.81 17.8401 18.48 17.0101 18.48Z" fill="#4C5356"/>
</svg>
