<svg width="32" height="32" viewBox="0 0 32 32" fill="none" xmlns="http://www.w3.org/2000/svg">
<path fill-rule="evenodd" clip-rule="evenodd" d="M16.273 6.08111C16.1918 6.02818 16.0969 6 16 6C15.9031 6 15.8082 6.02818 15.727 6.08111L4.227 13.5811C4.15728 13.6265 4.10001 13.6887 4.06037 13.7618C4.02073 13.835 3.99998 13.9169 4 14.0001V26.5001C4 26.6327 4.05268 26.7599 4.14645 26.8537C4.24021 26.9474 4.36739 27.0001 4.5 27.0001H27.5C27.6326 27.0001 27.7598 26.9474 27.8536 26.8537C27.9473 26.7599 28 26.6327 28 26.5001V14.0001C28 13.9169 27.9793 13.835 27.9396 13.7618C27.9 13.6887 27.8427 13.6265 27.773 13.5811L16.273 6.08111ZM5 26.0001V14.2701L16 7.09711L27 14.2711V26.0001H5ZM15.677 22.3811L9.177 16.8811L9.823 16.1181L16 21.3451L22.177 16.1181L22.823 16.8821L16.323 22.3821C16.2327 22.4585 16.1183 22.5004 16 22.5004C15.8817 22.5004 15.7673 22.4575 15.677 22.3811Z" fill="#1B1E1F"/>
</svg>
