<svg width="24" height="24" viewBox="0 0 24 24" fill="none" xmlns="http://www.w3.org/2000/svg">
<path fill-rule="evenodd" clip-rule="evenodd" d="M12.272 4.08046C12.191 4.02794 12.0965 4 12 4C11.9035 4 11.809 4.02794 11.728 4.08046L3.228 9.58046C3.15796 9.62587 3.1004 9.68809 3.06057 9.76145C3.02075 9.83482 2.99992 9.91698 3 10.0005V18.5005C3 18.6331 3.05268 18.7602 3.14645 18.854C3.24022 18.9478 3.36739 19.0005 3.5 19.0005H20.5C20.6326 19.0005 20.7598 18.9478 20.8536 18.854C20.9473 18.7602 21 18.6331 21 18.5005V10.0005C21.0001 9.91698 20.9793 9.83482 20.9394 9.76145C20.8996 9.68809 20.842 9.62587 20.772 9.58046L12.272 4.08046ZM4 18.0005V10.2725L12 5.09646L20 10.2725V18.0005H4ZM11.688 15.3905L6.688 11.3905L7.312 10.6105L12 14.3605L16.688 10.6105L17.312 11.3905L12.312 15.3905C12.2234 15.4612 12.1134 15.4997 12 15.4997C11.8866 15.4997 11.7766 15.4612 11.688 15.3905Z" fill="#1B1E1F"/>
</svg>
