<svg width="32" height="33" viewBox="0 0 32 33" fill="none" xmlns="http://www.w3.org/2000/svg">
<path d="M16.5 14.2144C14.8 14.2144 13.5 15.5144 13.5 17.2144H14.5C14.5 16.1144 15.4 15.2144 16.5 15.2144C17.6 15.2144 18.5 16.1144 18.5 17.2144C18.5 18.3144 17.6 19.2144 16.5 19.2144V20.2144C18.2 20.2144 19.5 18.9144 19.5 17.2144C19.5 15.5144 18.2 14.2144 16.5 14.2144Z" fill="#1B1E1F"/>
<path d="M16.5 11.2144C13.2 11.2144 10.5 13.9144 10.5 17.2144C10.5 20.5144 13.2 23.2144 16.5 23.2144C19.8 23.2144 22.5 20.5144 22.5 17.2144C22.5 13.9144 19.8 11.2144 16.5 11.2144ZM16.5 22.2144C13.7 22.2144 11.5 20.0144 11.5 17.2144C11.5 14.4144 13.7 12.2144 16.5 12.2144C19.3 12.2144 21.5 14.4144 21.5 17.2144C21.5 20.0144 19.3 22.2144 16.5 22.2144Z" fill="#1B1E1F"/>
<path d="M16.5 6.71436C10.7 6.71436 6 11.4144 6 17.2144C6 23.0144 10.7 27.7144 16.5 27.7144C22.3 27.7144 27 23.0144 27 17.2144C27 11.4144 22.3 6.71436 16.5 6.71436ZM16.5 26.7144C11.3 26.7144 7 22.4144 7 17.2144C7 12.0144 11.3 7.71436 16.5 7.71436C21.7 7.71436 26 12.0144 26 17.2144C26 22.4144 21.7 26.7144 16.5 26.7144Z" fill="#1B1E1F"/>
</svg>
